<svg width="150" height="75" xmlns="http://www.w3.org/2000/svg">
  <path
    d="M150 73.093c0-.681 0-1.359-.139-2.038-.274 0-19.658 1.224-29.148 1.224-12.51 0-30.385-.137-30.385-.137l-82.905-.815V69.56l82.77-.272s18.01.272 30.52.272c9.49 0 28.737-.135 29.148 0-.138-1.085-.138-2.446-.274-3.532-.415 0-19.523 1.495-28.874 1.495-12.51 0-30.385-.817-30.385-.817l-21.31.137-28.047-.815-33.135-.272c0-.272.137-1.63.274-1.903 1.101.135 2.2.544 6.187.544 5.224 0 7.837-1.222 7.837-1.222s3.85 1.088 9.074 1.088c2.474 0 7.838-2.447 11.137-1.495 5.361 1.63 7.424-.815 7.424-.815s1.236 1.63 3.438 2.174c1.925.407 4.123-.95 4.123-.95s3.025 2.173 11.55 2.173c10.586-.135 13.336-5.57 13.336-5.57h.412s-.412 1.495.277 2.854c1.101 2.31 4.4 2.582 4.4 2.582-.415-6.522 2.473-10.734 2.473-10.734h.414l-.414 1.359c-1.098 4.619.962 8.967.962 8.967l.962-.544s-.962-2.989.138-7.066c.962-4.212 2.338-6.25 2.338-6.25h.55s-1.1 3.124-1.1 5.707c0 2.173 1.239 7.065 5.224 8.423 3.164 1.223 5.363-1.36 5.363-1.36s6.464 1.63 12.1 1.63c12.786 0 15.673-2.036 15.673-2.036s.825 1.494 7.423 1.494c3.85 0 6.737-.272 8.523-.543.55 0 1.101-.136 1.376-.136-.14-1.088-.275-2.174-.55-3.26-3.574-19.837-15.263-36.957-31.483-47.962l-.962 2.582c15.809 10.463 27.358 26.63 30.935 45.924-1.79.543-4.4 1.359-7.838 1.359-5.085 0-6.186-1.63-6.186-1.63s-1.925 1.358-5.225 1.358c-2.887 0-5.224-2.172-5.224-2.172s-3.026 2.853-8.25 2.853c-6.323 0-9.487-3.94-10.585-5.57-1.24-1.767-1.79-3.261-1.79-3.261h-.547c.136.68.274 1.494.686 2.445.825 2.174 1.375 2.989 1.65 3.533.137.407.551 1.222-.277 1.493-.55.135-.962-.136-1.097-.407-.415-.544-1.513-2.174-2.34-4.619-.825-2.582-.962-4.483-1.098-5.842h-.412c-.138 1.359-.414 3.124-.277 5.57.277 2.583.962 4.484 1.24 4.891 0 .136.135.407.135.68.139.816-.55 1.223-1.236 1.087-.55-.135-1.101-.68-1.375-1.223-2.75-4.62.55-13.18 1.648-16.168 1.375-3.941 1.79-7.608 1.79-7.608s1.925-2.99 2.884-5.028c1.24-2.445 2.201-4.89 3.026-5.842 1.24-1.222 3.165-4.212 5.363-8.016.274-.68 2.06-4.484 2.476-5.57.274-.68.55-1.359.825-2.174.961-3.668 1.648-7.472 1.648-8.152.138-.95-1.51-1.494-1.51-1.494s-1.378-.544-2.476-.544c-.411 0-1.239.544-1.786.815-.828.407-1.24.136-1.24.136s-1.236-.544-1.925-.409c-.55.136-1.098.817-1.648 1.088-.825.407-1.1.136-1.1.136s-1.101-.273-1.788 0c-.689.27-1.375.544-2.475 1.494A74.628 74.628 0 0 0 74.93 0C33.958 0 .549 32.61 0 72.962V75h150v-1.907zM54.309 58.147c-.275-.136-.137-.273-.275-.409 2.063-6.384 6.737-19.7 14.573-29.89.825.407 1.512.816 2.2 1.222-5.362 6.522-12.786 18.615-16.498 29.077zm4.674 2.175c1.65-5.98 5.362-18.48 13.75-30.164.824.407 1.512.95 2.336 1.359-5.637 7.472-12.511 19.293-15.673 29.076-.276-.137-.137-.137-.413-.271zm5.912 1.493h-.413c1.1-4.755 4.4-17.119 12.235-29.212.825.544 1.514 1.088 2.2 1.495-5.361 7.745-11.41 18.75-14.022 27.717zm5.637-.136c-.137 0-.137 0-.411.136 1.099-4.483 3.85-15.353 10.587-26.494.825.68 1.648 1.222 2.199 1.63C77.955 44.424 72.869 53.8 70.532 61.68zm19.798-19.7c-1.513 0-3.574-.68-4.263-1.766.139 2.038 2.613 3.804 4.813 3.94v.136c-.412.136-.962.136-1.512.136-2.75 0-5.086-2.174-5.086-4.89 0-.409.139-.815.139-1.224 2.06 1.63 6.736 4.077 9.21.544l.138.271c-.552 1.494-1.788 2.852-3.44 2.852zm8.389-11.414c-.139.95-.69 1.223-1.24 1.494-.411.136-1.097.68-1.236.951-.139.136-.277.136-.277 0 0 0-.412-.136-.548-.271l-.138-.136v-.408l.138-.273v-.544s-.277-.679-.138-1.358c.138-.68.962-1.36.962-1.36l.274.136s-.412.409-.55 1.088c-.136.273-.275 1.223 0 1.766v.408l.277.136s.139-.136.275-.136c.411-.408.689-.544.689-.544s-.825-.544-.412-1.222c.274-.68 1.098-.408 1.098-.408.277-.815.138-1.63.138-1.63l.412.136c-.002.002.41 1.089.276 2.175zm3.85-25.135c.685-.407 1.236-.815 2.059-1.086.828-.136 1.512 0 2.201 0 .548 0 1.648-.952 2.06-.817.55 0 1.1.136 1.512.407.412.137 2.063-.95 2.476-.95.274 0 1.375 0 1.236 1.223-.274.95-.824 3.668-2.198 6.928-.412 1.088-.962 2.174-1.512 3.262-.55 1.359-1.375 2.582-2.199 3.804-3.299 5.298-6.325 4.212-12.786 7.064-4.95 2.31-7.014 3.941-7.837 4.756l-1.236-.815c.824-.95 2.887-2.31 7.15-4.483 4.535-2.31 11.96-5.436 13.61-7.881 0-.271-.139-.408-.139-.544-1.786 1.086-3.161 1.903-3.985 2.31-7.287 3.668-9.763 4.483-13.063 6.113-1.512.815-3.85 2.174-5.363 3.26l-1.237-.815c1.376-1.087 3.3-2.446 5.637-3.533 3.161-1.63 5.913-2.989 13.747-7.472.69-.408 4.675-2.853 7.562-4.892.139-.27.139-.544.277-.815-2.748 1.63-11.41 6.114-13.2 7.064-7.286 3.669-7.011 3.398-10.173 5.028-2.199 1.087-4.263 2.446-5.636 3.397-.412-.273-.825-.68-1.101-.95 1.651-1.088 3.3-2.31 5.636-3.534 3.3-1.63 3.712-2.036 11-5.706 3.712-1.766 10.31-6.114 13.613-8.288.136-.272.136-.408.136-.544-3.574 1.902-13.887 7.2-15.674 8.152-7.287 3.669-8.111 3.94-11.41 5.57-1.926.95-3.713 2.038-4.949 2.989l-.828-.815c1.1-.95 3.165-2.31 5.914-3.94 3.299-1.765 3.85-2.038 11.135-5.706.689-.273 4.126-2.174 7.7-4.348.962-.544 2.063-1.222 3.026-1.766.686-.407 1.236-1.088 1.787-1.359l-.275-.135c-1.65.543-3.576 1.63-4.126 1.902-3.713 2.174-8.66 4.348-10.173 5.028-7.288 3.668-8.112 4.076-11.277 5.57-1.787.95-3.85 2.309-5.225 3.26-.275-.272-.687-.679-.961-.814 1.51-1.223 3.574-2.718 6.184-3.94 3.165-1.631 3.85-1.903 11.138-5.57 1.376-.68 2.476-1.36 3.438-1.904.142.003 3.44-1.762 6.328-3.665zM78.093 3.664c7.011 0 13.748.95 20.209 2.854-1.375.95-3.162 1.902-5.36 3.124-8.251 4.077-9.352 4.348-12.925 6.25-2.337 1.088-4.125 2.31-5.638 3.398-.137 0-.137-.136-.137-.136s-1.512-1.902-2.474-2.582c-.962-.68-2.888-1.088-3.575-1.494-1.375-.544-1.512-1.088-3.3-1.63-1.649-.544-2.612-.273-3.711-.407-.825-.137-1.926-.68-3.3-.544-.688.136-1.925.68-2.75.815-1.1 0-2.337-.408-3.163-.271-.825.135-1.925 1.086-3.299 1.359-.962.135-1.925 0-2.613.135-.687.136-2.198 1.356-2.886 1.629-.687.271-2.337.408-2.2 1.766.138 1.223 2.75 1.494 2.75 1.494s11.825 1.63 22.961 7.335c-1.65 2.039-3.162 4.213-4.674 6.524-.825-.273-2.063-.544-2.75-.68-1.237-.135-2.475.544-3.3.407-1.65 0-1.786-.407-3.711-.136-1.376.272-1.513.68-2.888 1.087-.687.272-1.787-.136-3.299.408-.687.136-1.925 1.359-2.613 1.766-.687.272-1.787.272-2.613.95-.687.408-.687 1.088-1.925 1.903-.962.544-1.65.271-2.475 1.222-.55.408-.687 1.223-2.062 2.31-1.926 1.494-1.65 2.717-1.512 3.125.55 1.224 3.437 0 3.437 0s9.487-3.26 21.035-3.804c-2.887 5.98-5.499 11.685-6.874 15.353-.274.951-.55 1.63-.824 2.31h-.276c-.688-.544-.688-1.494-.276-3.533.413-2.174 2.062-6.113 2.613-7.2h-.688c-.55 1.087-2.2 4.076-2.613 4.89-.55 1.087-.825 1.495-2.06 4.076-.277.544-.963 1.766-1.652 1.766-.55 0-1.1-.407-1.1-.816 0-.272.414-.815.551-.95 1.65-2.445 2.476-4.89 2.888-5.842h-.688s-4.262 9.646-13.199 9.646c-3.162 0-6.186-1.493-6.186-1.493s-4.263 1.901-10.036 1.901c-4.537 0-7.287-.815-8.387-1.222C14.713 28.392 42.485 3.664 78.094 3.664z"
    fill="#FFF"
    fill-rule="nonzero"/>
</svg>