<svg xmlns="http://www.w3.org/2000/svg" viewBox="0 0 512 512"><path d="M509.622 464.823L402.004 289.912c-2.943-4.782-8.052-7.637-13.667-7.637-5.614 0-10.723 2.856-13.664 7.637l-13.972 22.709a7.512 7.512 0 0 0 12.796 7.873l13.972-22.71c.074-.12.299-.486.87-.486s.797.366.871.486l107.618 174.911c.086.139.314.51.022 1.033-.292.523-.728.523-.892.523h-59.6L269.665 203.333a16 16 0 0 0-5.958-5.678l.008.004v-50.98a69.434 69.434 0 0 0 18.297 2.419c17.132 0 33.175-5.955 48.87-11.781 21.748-8.073 42.29-15.698 64.508-6.788a9.276 9.276 0 0 0 8.66-.927 9.286 9.286 0 0 0 4.089-7.701V37.044a9.286 9.286 0 0 0-5.65-8.561c-28.203-12.027-52.927-2.851-76.836 6.023-22.398 8.314-43.553 16.167-66.588 5.872a7.514 7.514 0 0 0-10.577 6.858v.279a7.7 7.7 0 0 0-.203 1.736v148.408a16.016 16.016 0 0 0-5.951 5.674l-79.139 128.623-25.868-42.043c-2.942-4.782-8.051-7.637-13.666-7.637-5.614 0-10.723 2.855-13.665 7.637L2.377 464.823a16.06 16.06 0 0 0-.341 16.235 16.057 16.057 0 0 0 14.006 8.218h479.915a16.057 16.057 0 0 0 14.006-8.218 16.057 16.057 0 0 0-.341-16.235zM263.512 57.901c24.317 6.67 46.158-1.437 67.37-9.311 20.985-7.79 40.867-15.168 62.234-7.642v72.985c-24.39-6.688-46.253 1.428-67.462 9.3-20.95 7.776-40.813 15.149-62.142 7.646V57.901zM93.282 474.252l25.771-41.885a7.512 7.512 0 0 0-12.795-7.873l-30.615 49.758h-59.6c-.164 0-.6 0-.892-.523s-.065-.893.022-1.033l107.619-174.91c.074-.12.299-.486.87-.486s.796.366.87.486l29.844 48.504-29.799 48.431a7.512 7.512 0 0 0 12.795 7.873L255.13 211.205c.074-.12.299-.486.87-.486.57 0 .795.366.87.486l161.848 263.047H93.282z" fill="#FFF"/></svg>