<svg xmlns="http://www.w3.org/2000/svg" viewBox="0 0 512 512"><path d="M504.5 304.24h-58.549a3.71 3.71 0 0 1-3.705-3.705V140.172a3.71 3.71 0 0 1 3.705-3.705H504.5c4.143 0 7.5-3.357 7.5-7.5s-3.357-7.5-7.5-7.5h-58.549c-10.314 0-18.705 8.391-18.705 18.705v8.477h-36.867c-4.143 0-7.5 3.357-7.5 7.5s3.357 7.5 7.5 7.5h36.863v113.41h-34.6a7.5 7.5 0 0 0-5.102 2.003l-62.4 57.914a7.5 7.5 0 1 0 10.203 10.994l60.243-55.911h31.659v8.477c0 10.314 8.391 18.705 18.705 18.705h58.55c4.143 0 7.5-3.357 7.5-7.5s-3.357-7.501-7.5-7.501z" fill="#FFF"/><path d="M371.933 164.598l-99.425-69.253a7.499 7.499 0 0 0-4.286-1.346h-75.531a27.279 27.279 0 0 0-15.852 5.04l-13.261 9.369a7.5 7.5 0 1 0 8.655 12.25l13.27-9.375a12.369 12.369 0 0 1 7.188-2.284h73.177l95.938 66.824-3.761 5.361c-10.838 15.456-32.421 19.484-48.13 8.971l-43.453-28.891c-.03-.02-.062-.031-.092-.051-.037-.022-.074-.04-.111-.061a7.487 7.487 0 0 0-9.005.817l-95.995 87.609-.032.033-39.738 36.114a29.4 29.4 0 0 0-5.124 6.303c-.602-8.427-7.589-14.971-16.116-14.971H84.754V163.642h22.8a53.176 53.176 0 0 0-.544 2.532 7.5 7.5 0 0 0 14.74 2.776 36.709 36.709 0 0 1 3.008-9.14c.151-.269.286-.547.404-.835a36.421 36.421 0 0 1 11.406-13.11l10.259-7.249a7.5 7.5 0 0 0-8.656-12.25l-10.261 7.25a51.451 51.451 0 0 0-14.119 15.026H84.754v-8.47c0-10.314-8.391-18.705-18.705-18.705H7.5c-4.142 0-7.5 3.357-7.5 7.5s3.358 7.5 7.5 7.5h58.549a3.71 3.71 0 0 1 3.705 3.705v15.892c0 .026-.004.051-.004.077v128.42c0 .026.004.051.004.077v15.896a3.71 3.71 0 0 1-3.705 3.705H7.5c-4.142 0-7.5 3.357-7.5 7.5s3.358 7.5 7.5 7.5h58.549c10.314 0 18.705-8.391 18.705-18.705v-8.474h15.498c.619 0 1.145.481 1.171 1.073.302 6.72 1.194 26.431 14.368 28.509a29.51 29.51 0 0 0 4.214 5.811 29.53 29.53 0 0 0 18.858 9.256 29.884 29.884 0 0 0-.706 5.502c-.275 7.877 2.539 15.389 7.913 21.138 5.372 5.772 12.668 9.105 20.546 9.385a29.34 29.34 0 0 0 13.074-2.527c.968 5.589 3.534 10.785 7.492 15.034 5.375 5.771 12.674 9.103 20.554 9.38 3.94.143 7.778-.491 11.356-1.826.857 5.889 3.478 11.369 7.621 15.808 5.375 5.77 12.674 9.101 20.553 9.379.356.013.711.019 1.067.019 7.488 0 14.587-2.791 20.079-7.913l44.36-41.17a7.5 7.5 0 1 0-10.204-10.994l-44.374 41.182c-9.415 8.783-24.855 1.731-24.403-11.134a14.41 14.41 0 0 1 4.603-10.096l.015-.015a7.5 7.5 0 0 0-10.219-10.982v.001l-9.526 8.864c-9.422 8.786-24.85 1.725-24.399-11.141a14.401 14.401 0 0 1 4.612-10.102l.002-.002a7.5 7.5 0 0 0-10.219-10.982l-.035.033-11.071 10.303c-9.401 8.767-24.857 1.777-24.408-11.119.135-3.876 1.776-7.468 4.633-10.125l3.928-3.671.018-.017.004-.003a7.5 7.5 0 0 0-10.238-10.964 14.343 14.343 0 0 1-7.86 3.737 14.533 14.533 0 0 1-12.652-4.462c-5.457-5.865-5.13-15.071.663-20.462l131.622-119.616 38.327 25.482c10.922 7.311 24.054 10.008 36.98 7.598 12.929-2.413 24.206-9.67 31.754-20.433l4.84-6.898c4.153-5.932 2.712-14.136-3.232-18.302z" fill="#FFF"/></svg>