<svg xmlns="http://www.w3.org/2000/svg" viewBox="0 0 64 80">
  <path d="M56.783 64H7.22C3.24 64 .002 60.762.002 56.781V7.219C.002 3.239 3.24 0 7.22 0h49.563c3.98 0 7.219 3.238 7.219 7.218v49.563A7.227 7.227 0 0 1 56.783 64zM7.22 3a4.223 4.223 0 0 0-4.218 4.219v49.562A4.223 4.223 0 0 0 7.22 61h49.563a4.224 4.224 0 0 0 4.219-4.219V7.219A4.224 4.224 0 0 0 56.783 3H7.22z"/>
  <path d="M45.111 42.996h-7.777a1.5 1.5 0 0 1 0-3h7.777a6.779 6.779 0 0 0 6.771-6.771 6.734 6.734 0 0 0-6.568-6.76 1.5 1.5 0 0 1-1.455-1.5v-.168c0-6.101-4.964-11.064-11.064-11.064S21.73 18.696 21.73 24.797v.155a1.5 1.5 0 0 1-1.5 1.5h-1.34a6.78 6.78 0 0 0-6.772 6.772 6.779 6.779 0 0 0 6.772 6.771h7.776a1.5 1.5 0 1 1 0 3H18.89c-5.389 0-9.772-4.383-9.772-9.771 0-5.357 4.332-9.721 9.677-9.772.68-7.126 6.699-12.72 14.001-12.72 7.354 0 13.408 5.673 14.015 12.874a9.712 9.712 0 0 1 8.073 9.618c-.001 5.389-4.385 9.772-9.773 9.772z"/>
  <path d="M37.409 48.354l-4.335 4.459-.001.002-.022.021-.004.006-.014.01a1.52 1.52 0 0 1-.476.307l-.041.012a1.44 1.44 0 0 1-.488.094l-.011.002-.017.002-.015-.002-.022-.002a1.473 1.473 0 0 1-.484-.096l-.035-.01a1.48 1.48 0 0 1-.471-.303c-.006-.006-.014-.008-.021-.014-.002-.002-.003-.006-.006-.008a.08.08 0 0 0-.016-.016l-.007-.006-4.334-4.459a1.5 1.5 0 0 1 2.151-2.092l1.758 1.811-.001-13.848a1.5 1.5 0 1 1 3 0l.002 13.846 1.758-1.809a1.5 1.5 0 0 1 2.121-.029c.596.579.609 1.528.031 2.122z"/>
</svg>