<svg xmlns="http://www.w3.org/2000/svg" viewBox="0 0 32 40"><path d="M16 23a.997.997 0 0 1-.707-.293l-4-4a.999.999 0 1 1 1.414-1.414L16 20.586l3.293-3.293a.999.999 0 1 1 1.414 1.414l-4 4A.997.997 0 0 1 16 23z"/><path d="M16 23a1 1 0 0 1-1-1V12a1 1 0 0 1 2 0v10a1 1 0 0 1-1 1zM22 27H10a1 1 0 1 1 0-2h12a1 1 0 1 1 0 2z"/><path d="M26.435 32H5.568C4.152 32 3 30.877 3 29.497V8.954c0-.869.353-1.72.967-2.335L9.618.968A3.279 3.279 0 0 1 11.954 0h14.48C27.849 0 29 1.122 29 2.501v26.998C29 30.878 27.85 32 26.435 32zM11.954 2c-.348 0-.675.135-.921.381L5.381 8.033A1.312 1.312 0 0 0 5 8.954v20.543c0 .277.255.503.568.503h20.866c.312 0 .566-.225.566-.501V2.501c0-.276-.254-.501-.566-.501h-14.48z"/><path d="M10.5 10H7a1 1 0 0 1 0-2h3.5a.5.5 0 0 0 .5-.5V4a1 1 0 0 1 2 0v3.5c0 1.378-1.122 2.5-2.5 2.5z"/></svg>