<svg version="1.1" id="Layer_1" xmlns="http://www.w3.org/2000/svg" x="0" y="0" width="223.9" height="40" xml:space="preserve"><style>.st0{fill:#004685}.st2{fill:#8c8c8c}</style><path class="st0" d="M76.8 19.8l-.2-.1c-1-.5-1.3-2-1.7-3.1l-5-13.2h-4.8v.4l.3.1s.2.1.3.1c.3.2.4.5.2 1.3-.1.3-.2.7-.2.7l-3.9 10.6c-.4 1.2-.8 2.6-1.7 3.1l-.3.1v.4h5.3v-.4l-.4-.1c-.4-.2-.5-.7-.1-2.1l.7-2h5.6c.1.4.3 1 .7 1.7.3.8.7 2 .1 2.3l-.3.1v.4H77l-.2-.3zM70 13.1h-3.8L68 7.9l2 5.2zM111.3 3.4v.4l.4.1c.7.2.7 1.8.5 2.7v10.3c0 .9 0 2.5-.5 2.8l-.4.1v.4h5.4v-.4l-.4-.1c-.7-.2-.7-2-.5-2.8V6.7c0-1.4.2-2.6.5-2.8l.4-.1v-.4h-5.4zM91.1 3.4v.4l.3.1c.7.2.7 1.8.5 2.7v10.3c0 .9 0 2.5-.5 2.8l-.4.1v.4h5.4v-.4l-.4-.1c-.7-.2-.7-2-.5-2.8V6.7c0-1.4.2-2.6.5-2.8l.4-.1v-.4h-5.3zM150.8 6.7c0-1 0-2.5-.5-2.7l-.4-.1v-.5h5.4v.4l-.4.1c-.4.2-.7 1.4-.5 2.8v10.2c0 .9 0 2.5.5 2.8l.4.1v.4h-5.4v-.4l.4-.1c.7-.2.5-2 .5-2.8V6.7zM60.7 2c-1.3-1.2-3.1-2-5.2-2h-6.9v.4l.3.1c.9.4.9 2.6.9 4.2v11.1c0 1.2 0 3.5-.9 3.8l-.4.1v.4h6.4v-.4l-.3-.1c-1.1-.8-1.1-2.4-1.1-4V12l.7.2s1.1.3 2.1.3c2.9 0 6.2-2.1 6.2-6.5-.1-1.4-.7-3-1.8-4zm-6.2 9.1h-.8V3.5c.4 0 1-.1 1.5-.1 1.3 0 2.4.3 2.9 1 .5.5.9 1.3.9 2.4-.2 2.6-2.5 4.1-4.5 4.3zM89.4 15.7c-.4.2-.5.3-.5.3-1 .7-2.6 1.4-4.3 1.4-1.3 0-2.4-.4-3.3-1.3-1.1-1.1-1.6-2.7-1.6-4.8 0-3.1 1.8-5.2 4.4-5.2 1.2 0 2.5.4 3.7 1.3l1 .7V3.7l-.4-.1c-1.6-.4-2.9-.7-4.1-.7-2.3 0-4.2.8-5.7 2.3-1.7 1.6-2.6 3.9-2.6 6.6s.9 4.9 2.4 6.5c1.5 1.5 3.8 2.4 6.5 2.4 1.3 0 2.5-.2 3.6-.8h.1l.1-.1.1-.1 1.2-3.9-.6-.1zM131.1 15.7l-.4.3c-1 .7-2.6 1.4-4.3 1.4-1.3 0-2.4-.4-3.3-1.3-1.1-1.1-1.6-2.7-1.6-4.8 0-3.1 1.8-5.2 4.4-5.2 1.2 0 2.5.4 3.7 1.3l1 .7V3.7l-.4-.1c-1.6-.4-2.9-.7-4.1-.7-2.3 0-4.2.8-5.7 2.3-1.6 1.6-2.5 3.9-2.5 6.6s.9 4.9 2.4 6.5c1.5 1.5 3.8 2.4 6.5 2.4 1.3 0 2.5-.2 3.6-.8l.2-.1 1.2-4.1h-.7zM108.5 3.4h-9.8v.4l.3.1c.7.2.7 1.8.5 2.7v10.3c0 .9 0 2.5-.5 2.8l-.4.1v.4h5.4v-.4l-.4-.1c-.7-.2-.7-2-.5-2.8v-3.4h3s1.3-.1 1.5.4l.1.2.3.1.3-4.6h-.4l-.1.3c-.1.3-1.3.4-1.6.4h-3V6.2h4c.9 0 1.4.2 1.5.7l.1.3h.4l1-4c0 .1-1.3.2-1.7.2zM167.1 3.4h-9.8v.4l.4.1c.7.2.7 1.8.5 2.7v10.3c0 .9 0 2.5-.5 2.8l-.4.1v.4h5.4v-.4l-.4-.1c-.7-.2-.7-2-.5-2.8v-3.4h3s1.3-.1 1.5.4l.1.2.3.1.2-4.6h-.4l-.1.3c-.1.3-1.3.4-1.6.4h-3V6.2h4c.9 0 1.4.2 1.5.7l.1.3h.4l1-4c0 .1-1.3.2-1.7.2zM181.1 16.1c-1 .9-2.7 1.3-4.4 1.3-1.7 0-2.5-.2-2.5-.2v-4.3h2.5s1.3 0 1.5.4l.1.2.4.1.2-4.2h-.4l-.2.3c-.1.3-1.2.4-1.6.4h-2.6V6.3h3.1c.9 0 1.7 0 2 .7l.1.3h.4l.8-4s-1.3.1-1.6.1h-9.3v.4l.4.2c.7.2.7 1.8.5 2.7V17c0 .8 0 2.5-.5 2.8-.1.1-.4.1-.4.1v.4h10.8l1.1-4.1-.4-.1zM148.6 15.3l-.2.2c-1.4 1.3-3 1.8-4.9 1.8s-2.6-.1-2.6-.1V4.1c0-1.2 0-3.1 1-3.5l.4-.1V0H136v.4l.4.1c.9.3.8 2.4.8 3.5v12.2c0 1.1 0 3.1-.8 3.4l-.4.1v.4h11.3l1.8-5.1h-.5v.3z"/><path d="M40.4 19.8v-.5c-.1 0-5.2.3-7.8.3h-8.1l-22.1-.2V19l22-.1s4.8.1 8.1.1h7.8c0-.3 0-.7-.1-1-.1 0-5.2.4-7.7.4-3.4 0-8.1-.2-8.1-.2h-5.6l-7.6-.2-8.9-.1c.1-.1.2-.4.2-.5.3 0 .5.1 1.6.1 1.4 0 2.1-.3 2.1-.3s1 .3 2.4.3c.7 0 2.1-.7 2.9-.4 1.4.4 2-.2 2-.2s.3.4 1 .5c.5.1 1.1-.2 1.1-.2s.8.5 3 .5c2.8 0 3.6-1.5 3.6-1.5h.1s-.1.4.1.8c.3.7 1.2.8 1.2.8-.1-1.7.7-2.9.7-2.9h.1v.4c-.3 1.3.2 2.4.2 2.4l.3-.1s-.2-.8 0-2c.2-1.1.7-1.6.7-1.6h.1s-.3.9-.2 1.5c0 .5.3 1.8 1.4 2.3.9.3 1.4-.3 1.4-.3s1.7.4 3.3.4c3.5 0 4.2-.5 4.2-.5s.2.4 2 .4c1 0 1.8-.1 2.3-.1h.3c0-.3-.1-.5-.1-.9-1-5.3-4.1-10-8.5-12.9l-.3.5c4.2 2.8 7.3 7.2 8.2 12.4-.5.2-1.2.3-2.1.3-1.3 0-1.6-.4-1.6-.4s-.5.3-1.4.3c-.8 0-1.4-.5-1.4-.5s-.9.8-2.2.8c-1.7 0-2.6-1.1-2.8-1.5-.3-.4-.4-.9-.4-.9h-.2c0 .2.1.4.2.7.2.7.3.9.4 1 0 .1.1.3-.1.4-.1 0-.2 0-.3-.1-.1-.1-.4-.5-.7-1.2-.2-.7-.3-1.2-.3-1.6h-.1c0 .3-.1.9-.1 1.5 0 .8.2 1.2.3 1.3 0 0 0 .1.1.1 0 .2-.1.3-.3.3-.1 0-.3-.2-.3-.3-.8-1.2.1-3.6.4-4.3.4-1.1.5-2.1.5-2.1s.5-.8.8-1.3c.3-.7.5-1.3.8-1.5.3-.3.9-1.2 1.4-2.2.1-.2.5-1.2.7-1.5.1-.2.2-.4.2-.5.3-1 .4-2.1.4-2.2 0-.2-.4-.4-.4-.4s-.3-.2-.5-.2c-.1 0-.3.1-.5.2s-.3 0-.3 0-.3-.1-.5-.1c-.1 0-.3.2-.4.3-.2.1-.3 0-.3 0s-.7-.3-.8-.2c-.2.1-.3.1-.7.4C25 .6 22.8.2 20.3.2 9.4.2.5 9 .4 19.8v.5h40v-.5zm-25.6-4c.4-1.8 1.7-5.4 3.8-8.2.2.1.4.2.7.3-1.5 1.9-3.4 5.1-4.5 7.9zm1.3.7c.4-1.6 1.4-5 3.7-8.1.2.1.4.2.7.4-1.6 1.8-3.4 5.1-4.4 7.7 0 0 .1 0 0 0zm1.5.3c.2-1.3 1.1-4.7 3.1-7.9.3.1.5.3.6.4-1.3 2.2-2.9 5.1-3.7 7.5zm1.7 0h-.1c.3-1.2 1-4.1 2.8-7.2.2.2.4.3.5.4-1.3 2.1-2.7 4.6-3.2 6.8zm5.2-5.3c-.4 0-1-.2-1.1-.4 0 .5.7 1 1.3 1.1-.1 0-.2.1-.4.1-.8 0-1.4-.7-1.4-1.3v-.3c.5.4 1.8 1.1 2.5.1v.1c-.2.3-.5.6-.9.6zm2.2-3.2c0 .2-.2.3-.3.4-.1.1-.3.2-.3.3h-.2V8.7v-.3c0-.2.2-.3.2-.3h.1s-.1.1-.2.3c0 .1-.1.3 0 .4v.1s.1 0 .1-.1c.1-.1.2-.1.2-.1s-.2-.1-.1-.3.3-.1.3-.1c.1-.2 0-.4 0-.4h.1c0-.1.1.2.1.4zm1-6.7c.2-.1.3-.2.5-.3s.4 0 .5 0 .4-.2.5-.2.3 0 .4.1c.3.1.7-.2.8-.2s.3 0 .3.3c-.1.2-.2 1-.5 1.8-.1.4-.2.6-.4.9-.2.3-.3.7-.5 1-.9 1.4-1.7 1.1-3.5 2-1.3.7-1.8 1.1-2.1 1.3-.1-.1-.2-.1-.3-.2.2-.2.8-.7 2-1.2 1.2-.7 3.1-1.5 3.6-2.2v-.1c-.4.3-.9.5-1.1.7-2 1-2.6 1.2-3.5 1.6-.4.2-1 .5-1.4.9-.1-.1-.2-.1-.3-.2.3-.3.9-.7 1.5-1 .9-.4 1.6-.8 3.7-2.1.1-.2 1.1-.8 2-1.4v-.2c-.8.4-3 1.6-3.5 1.8-2 1-1.8.9-2.7 1.3-.5.3-1.1.7-1.5 1-.1-.1-.2-.2-.3-.2.4-.3.9-.7 1.5-1 .9-.3 1-.4 2.9-1.4 1-.5 2.7-1.6 3.7-2.3v-.2c-1 .5-3.7 2-4.2 2.2l-3 1.5c-.5.2-1 .5-1.3.8l-.2-.2c.3-.2.9-.7 1.6-1.1.9-.4 1-.5 2.9-1.5.2-.1 1.1-.7 2.1-1.2.2-.1.5-.3.8-.5.2-.1.3-.3.5-.3H29c-.4.3-1 .7-1.1.7-1 .5-2.3 1.2-2.7 1.4l-3 1.5c-.4.2-1 .5-1.4.9l-.2-.2c.4-.3 1-.8 1.6-1.1.9-.4 1.1-.5 3-1.5.3-.2.7-.3.9-.5 0-.2.8-.6 1.6-1.2zm-6.5-.4c1.8 0 3.7.3 5.4.8-.3.2-.8.5-1.4.9-2.2 1-2.5 1.1-3.5 1.7-.7.3-1.1.7-1.5 1 0 0-.4-.5-.7-.8s-.8-.3-1-.4c-.3-.2-.4-.3-.9-.4-.4-.1-.7-.1-1-.1-.2 0-.5-.2-.9-.1-.2 0-.5.2-.8.2-.3 0-.5-.1-.9 0-.2 0-.5.3-.9.3h-.8c-.3 0-.5.3-.8.4-.2.1-.7.1-.5.4 0 .3.8.4.8.4s3.1.4 6.1 2c-.2.5-.6 1.1-.9 1.7-.2-.1-.6-.2-.8-.2-.3 0-.7.1-.9.1-.4 0-.5-.1-1 0s-.4.2-.8.3c-.2.1-.5 0-.9.1-.2.1-.5.4-.8.5s-.4.1-.7.2c-.2 0-.2.1-.7.4-.2.1-.3 0-.5.3-.1.1-.2.3-.5.7-.5.3-.5.7-.4.8.1.3.9 0 .9 0s2.5-.9 5.6-1c-.8 1.6-1.5 3.1-1.8 4.1-.1.2-.2.4-.2.7h-.1c-.2-.1-.2-.4-.1-1 .1-.5.5-1.6.7-2h-.2c-.1.3-.7 1.1-.8 1.3-.1.3-.2.4-.5 1.1.1.1-.1.5-.2.5s-.3-.1-.3-.2.1-.2.1-.2c.4-.7.7-1.3.8-1.5h-.2s-1.1 2.6-3.5 2.6c-.9 0-1.6-.4-1.6-.4s-1.1.6-2.8.6c-1.2 0-2-.2-2.2-.3C4.3 7.8 11.7 1.2 21.2 1.2z" fill="#008ed7"/><path class="st2" d="M13.1 29.3c0-1 .2-1.6.7-2.2.3-.4.9-.9 2-.9 1 0 1.6.4 1.8.9.4.5.7 1.2.7 2.2v.7h-1.5v-.7c0-.8-.2-1.3-.4-1.4-.2-.2-.5-.2-.7-.2-.2 0-.4 0-.8.2-.2.2-.4.7-.4 1.4v4.6c0 .7.1 1.1.3 1.3 0 .1.1.1.2.2s.3.1.5.1c.5 0 .8-.2.9-.3.2-.3.3-.8.3-1.3v-.8h1.4v.7c0 1-.2 1.6-.7 2.2-.3.4-.9.9-1.8.9-.5 0-.9-.1-1.2-.3-.3-.1-.5-.3-.7-.5-.4-.5-.7-1.2-.7-2.2.1-.2.1-4.6.1-4.6zM25.1 26.2v1.5h-3v3.2h3v1.3h-3v3.3h3v1.3h-4.4V26.2zM32.7 36.8h-4.6V26.2h1.4v9.3h3.2zM39.7 26.2v1.5h-3v3.2h3v1.3h-3v3.3h3v1.3h-4.3V26.2zM44.2 32.2v3.3h.7c.3 0 .7 0 .9-.2.2-.2.3-.7.3-1.4s-.1-1.2-.3-1.4c-.2-.2-.5-.2-.9-.2h-.7v-.1zm0-4.5V31h.7c.3 0 .5 0 .7-.1.1-.1.2-.1.2-.2.2-.2.3-.7.3-1.3 0-.8-.1-1.2-.3-1.4-.2-.2-.5-.2-.9-.2h-.7v-.1zm-1.4 9.1V26.2h2.1c.9 0 1.5.2 2 .8.4.4.7 1.2.7 2.2s-.2 1.6-.7 2.2l-.1.1.1.1c.4.5.7 1.2.7 2.2s-.2 1.7-.7 2.2c-.4.5-1.1.8-2 .8h-2.1zM51.6 30.9h.9c.3 0 .7 0 .8-.1s.2-.1.2-.2c.2-.2.3-.8.3-1.3 0-.7-.1-1.1-.3-1.4-.2-.2-.5-.2-1-.2h-.9v3.2zm3.6 5.9h-1.4v-3.1c0-1-.4-1.4-1.3-1.4h-.9v4.4h-1.3V26.1h2.2c1.8 0 2.7 1.1 2.7 3 0 1-.2 1.7-.7 2.2l-.1.1-.1.1c.5.5.8 1.2.8 2.1l.1 3.2zM60.7 32.5h1.2l-.7-2.6-.5 2.6zm1.6 1.3h-1.8l-.7 2.9h-1.4l2.4-10.5h1.1l2.5 10.5H63l-.7-2.9zM66.7 26.2h6v1.5h-2.3v9.1h-1.3v-9.1h-2.4zM75.9 26.2h1.3v10.5h-1.3zM84.4 36.8l-2.5-6.3v6.3h-1.4V26.2h1.2l2.5 6.4v-6.4h1.4v10.6zM88.7 29.3c0-1.8.9-3 2.5-3s2.5 1.1 2.5 3v.7h-1.4v-.7c0-.8-.1-1.2-.3-1.4-.2-.2-.4-.2-.8-.2s-.5 0-.8.2c-.2.2-.3.7-.3 1.4v4.6c0 .9.2 1.2.4 1.4.2.2.5.2.8.2.2 0 .5 0 .8-.2.2-.2.4-.7.4-1.4v-.8h-1.6v-1.4h3v2.2c0 1-.2 1.6-.7 2.2-.3.4-.9.9-1.8.9-1 0-1.6-.4-1.9-.8-.4-.5-.8-1-.8-2.2v-4.7zM103.2 28.6l1.8-2.4h1.3v10.6h-1.5v-8.1l-.5.8zM113.7 26.2v1.4h-3.1v2.5c.3-.1.5-.2.9-.2 1 0 1.4.4 1.7.9.3.5.5 1.2.5 2.1v1c0 .8-.2 1.4-.5 2-.4.7-1 1-1.7 1s-1.3-.2-1.6-.8c-.3-.4-.5-1-.5-1.5v-.2h1.3v.2c0 .1.1.3.2.5s.3.3.7.3c.3 0 .5-.2.7-.5.1-.3.2-.8.2-1v-1c0-.3 0-.7-.1-.9-.1-.4-.2-.5-.4-.7-.1 0-.2-.1-.4-.1-.4 0-.5.1-.7.3-.2.2-.3.5-.3 1.1v.4h-1.3v-6.8h4.4zM118.1 33.7c0 .4 0 .8.1 1 .1.4.3.7.5.7h.2c.1 0 .3 0 .5-.2.1-.1.2-.2.2-.5.1-.2.1-.5.1-1v-4.4c0-.4 0-.8-.1-1-.1-.4-.3-.7-.5-.7h-.2c-.1 0-.3 0-.5.2-.1.1-.2.3-.2.4-.1.2-.1.5-.1 1v4.5zm-1.3-4.4c0-1.8.7-3 2.3-3 1.5 0 2.3 1.2 2.3 3v4.4c0 1.8-.8 3-2.3 3s-2.3-1.3-2.3-3v-4.4zM134 30.1l2.2-3.9h1.5l-3.1 5.5v5.1h-1.3v-5.1l-3-5.5h1.6zM144.5 26.2v1.5h-3v3.2h3v1.3h-3v3.3h3v1.3h-4.3V26.2zM149.9 32.5h1.2l-.7-2.6-.5 2.6zm1.5 1.3h-1.8l-.7 2.9h-1.4l2.4-10.5h1.1l2.5 10.5h-1.4l-.7-2.9zM157.3 30.9h.9c.3 0 .7 0 .8-.1.1-.1.2-.1.2-.2.2-.2.3-.8.3-1.3 0-.7-.1-1.1-.3-1.4-.2-.2-.5-.3-1-.3h-.9v3.3zm3.6 5.9h-1.4v-3.1c0-1-.4-1.4-1.3-1.4h-.9v4.4H156V26.1h2.2c1.8 0 2.7 1.1 2.7 3 0 1-.2 1.7-.7 2.2l-.1.1-.1.1c.5.5.8 1.2.8 2.1v3.1h.1zM164 33.2h1.3v.7c0 .7.1 1.1.3 1.3 0 .1.1.1.2.2s.3.1.5.1c.5 0 .8-.2 1-.5.1-.3.2-.8.2-1 0-.5-.2-.9-.4-1.1-.2-.2-.5-.4-.9-.5l-.2-.1c-.3-.1-.9-.3-1.3-.8-.5-.5-.9-1.3-.9-2.1 0-.9.2-1.6.7-2.2.4-.5 1.1-.9 1.8-.9 1 0 1.6.4 2 .9.4.5.7 1.3.7 2.2v.6h-1.4v-.7c0-.8-.2-1.3-.4-1.4-.2-.2-.5-.2-.8-.2-.5 0-.9.3-1 .7-.2.3-.2.8-.2 1 0 .5.2.9.4 1.1s.5.4.9.5l.2.1c.2.1.8.3 1.2.8.5.5.9 1.2.9 2.1 0 1.6-.9 2.9-2.5 2.9s-2.5-1.1-2.5-3v-.7h.2zM.4 39.2h181.3v.8H.4zM.4 23h181.3v.8H.4z"/></svg>